<svg xmlns="http://www.w3.org/2000/svg" class="pcb-mark" viewBox="0 0 475 385"><path fill="#d8c7af" d="M120.18 140.53q3.44 1.14 6.82 2.47l2.5.95c21.48 8.38 41.3 20.34 58.26 36q2.89 2.64 5.93 5.11c3.86 3.3 7.1 7.01 10.31 10.94l2.28 2.77c11.53 14.48 20.03 30.26 27.71 47.06q1.93 4.12 4.01 8.17l1.25-2.97c13.8-32.44 34.09-60.17 62.75-81.03l1.7-1.25c17.1-12.38 39.86-26.55 61.3-28.75 1.88.94 1.88.94 3 3 .73 6.34-.14 8.78-4 14q-2.3 2.64-4.69 5.19a271 271 0 0 0-11.84 13.8 441 441 0 0 1-8.85 10.32 420 420 0 0 0-16.15 19.8 728 728 0 0 1-4.77 6.07c-35.26 44.6-62.26 94.37-78.7 148.82h-3l-.71-2.28c-15.94-50.54-40.23-96.28-71.87-138.8l-4.36-5.92a353 353 0 0 0-18.26-22.76q-3.76-4.36-7.36-8.86A219 219 0 0 0 123.5 171c-16.19-17.44-16.19-17.44-16.81-24.56.31-3.44.31-3.44 1.31-5.38 3.75-1.99 8.15-1.51 12.18-.53"/><path fill="#3f4632" d="M174.42 310.66C195.1 328.28 217.48 352.7 224 380a89 89 0 0 1-1 5c-56.05.44-56.05.44-76-2l-2.54-.3C106.7 378.2 72.56 362.08 45 336l-2.68-2.48C30.92 322.59 22.4 309.9 15 296l-1.28-2.14C13 292 13 292 13.12 289.9c1.9-4.12 6.9-5.3 10.88-6.9 49.96-18.37 109.89-6.1 150.42 27.66M460 287c1.53 2.23 1.53 2.23 2 5a41 41 0 0 1-3.25 6.94l-1.11 1.98c-6.75 11.76-14.9 21.99-24.32 31.7q-1.65 1.74-3.26 3.51c-31.6 33.8-79.75 46.73-124.46 48.74-17.85.59-35.75.27-53.6.13-2.74-11.38 7.95-26.36 13.7-35.92 6.5-10.37 14.88-19.26 23.3-28.08l1.86-2.02C327.96 279.76 411.15 256.29 460 287"/><path fill="#869b85" d="M473 140c2.8 2.8 2.29 4.8 2.33 8.63l-.02 2.75-.01 2.84C474.79 185.28 464.47 216 442 238c-18.03 17-39.86 21.99-63.53 26.38C357.2 268.33 337.13 274.8 318 285c-2.3-30.09 17.62-64.53 36-87q3.79-4.33 7.74-8.53a96 96 0 0 0 4.34-5.09c20.16-25 56.51-40.22 87.67-44 6.37-.56 12.87-.89 19.25-.38m-464.25-.37c35.52.15 69.6 16.51 95.25 40.37l1.68 1.54c24.65 22.92 48.74 60.09 51.32 94.46q.05 4.5 0 9l-1.58-.73c-21.58-9.94-42-16.82-65.4-21.14-27.32-5.06-51.58-14.52-68.58-37.75C6.8 203.36-.16 178.53-.2 152.13l-.03-2.88-.01-2.74-.01-2.48c.61-5.13 4.82-4.36 8.99-4.4"/><path fill="#c2603c" d="M233.41-.12C279.57-.96 324.11 15.68 358 47l2.85 2.6c13.1 12.5 23.1 27.25 31.15 43.4l1 2.01c3.98 8.1 6.9 16.4 9.44 25.05l.78 2.67c1.37 4.92 2.06 9.17 1.78 14.27l-6.37 3.5-1.83 1.01c-4.57 2.49-4.57 2.49-6.8 2.49l-1.18-3.49c-14.9-42.85-44.3-75.87-85.07-95.76-36.53-17.24-79.32-19.4-117.5-6.15-42.84 15.66-74.88 45.42-94.2 86.52A132 132 0 0 0 85 144a55 55 0 0 1-10.81-4.5l-2.33-1.28C70 137 70 137 69 135c5.1-31.21 20.71-59.98 42.58-82.52a286 286 0 0 0 3.88-4.13C145.42 16.85 190.86 1.4 233.4-.12"/><path fill="#d8c7af" d="M257.14 119.21c7.54 4.97 12.56 13.15 14.86 21.79 1.16 12.13-.64 21.63-8.3 31.18-7.44 7.96-15.7 11.24-26.5 11.81-9.52.03-17.03-3.5-24.21-9.74-7-7.29-10.25-15.84-10.55-25.87.4-10.54 4.03-18.91 11.56-26.38 13.41-9.93 28.63-11.02 43.14-2.79"/></svg>