<svg xmlns="http://www.w3.org/2000/svg" viewBox="0 0 1000 811" class="pcb-mark"><path fill="#d8c7af" d="M248.6 295.58a99 99 0 0 1 9.77 3.92 66 66 0 0 0 8.94 2.94c5.35 1.4 10.8 2.94 15.69 5.56v2l2.19-.12A17 17 0 0 1 293 312v2h4v2l2 .26c3.98.98 7.36 2.74 11 4.62l2.12 1.06c2.97 1.51 5.87 3.06 8.74 4.78A17 17 0 0 0 327 329v2l1.87.44C331 332 331 332 333 333v2h4v2l2.5.63c3.8 1.49 6.43 3.42 9.62 5.92A61 61 0 0 0 356 348a51 51 0 0 1 9 7l2.44 1.44c2.62 1.6 4.4 3.4 6.56 5.56l2.25 1.31c3.3 2.03 5.97 4.49 8.84 7.07 1.91 1.62 1.91 1.62 4.47 3.06 3.19 2.04 5.24 4.67 7.66 7.56a40 40 0 0 0 5.22 4.88L405 388v2h2v2l1.87.88c2.57 1.35 2.93 2.56 4.13 5.12h2a40 40 0 0 1 3.31 3.69c3.6 4.22 7.05 8.22 11.69 11.31a293 293 0 0 1 2.84 5.07c1.99 3.3 4.6 6.06 7.16 8.93a74 74 0 0 1 8 11l1.5 1.5c2.7 2.7 4.32 5.42 4.94 9.19L455 451q2 1.02 4 2v4l3 1a42 42 0 0 1 2 6h2v4h2v4h2a96 96 0 0 1 3.31 6.44l2.81 5.78a138 138 0 0 0 7.7 13.6C485 500 485 500 485 504h2l.99 2.89 2.62 7.56A54 54 0 0 0 495 523q.9 2.6 1.62 5.25c1.29 4.66 1.29 4.66 2.38 5.75q.06 2.5 0 5h3v-4h2l-.14-2.2c.16-3.15.92-4.76 2.45-7.49 2.62-4.95 4.27-9.9 5.69-15.31h2v-4h2l.31-2.12c1.33-5.54 4.52-10.5 7.19-15.5l1.78-3.36A62 62 0 0 1 530 478c.69-2.25.69-2.25 1-4h2l2-6h2l.31-1.81c.8-2.51 1.86-3.36 3.69-5.19.69-2.19.69-2.19 1-4h2v-2h2v-4h2v-2h2l.25-1.69c.98-3.02 2.73-4.87 4.75-7.31l1.5-2.56c1.57-2.56 3.38-4.32 5.5-6.44l1.31-2.31c1.91-3.05 4.16-5.2 6.74-7.67a55 55 0 0 0 4.94-6c4.34-5.64 9.3-10.62 14.35-15.62l4.77-4.78c4.85-4.86 9.69-9.48 15.3-13.47a36 36 0 0 0 5.28-4.84c2.53-2.73 5.1-4.4 8.31-6.31q2.7-2.11 5.31-4.31C644.85 352 644.85 352 649 352v-2c3-2 3-2 6-2v-2c2.16-1.33 2.16-1.33 5.06-2.81a66 66 0 0 0 9.5-5.75c5.15-3.84 11.13-7.1 17.44-8.44v-2h4v-2h4v-2h4l1-3h3l1-2q3.34-1.31 6.75-2.44c4.45-1.48 8.3-3.03 12.25-5.56a18.4 18.4 0 0 1 10-2v-2l1.84-.52a182 182 0 0 0 20.68-7.55c5.12-1.92 9.71-2.54 14.92-.74 2.75 1.94 3.4 2.73 4.56 5.81.72 7.18.63 13.62-3 20l-1.1 2.02a28.5 28.5 0 0 1-8.28 9.48c-2.93 2.72-4.94 6.15-7.1 9.49L754 346h-2v2h-2v2h-2v2h-2v2h-2a207 207 0 0 0-2 5c-1.5 2.31-1.5 2.31-3 4h-2v2h-2v2h-2q-1.06 2.48-2 5l-2 3h-2v2h-2q-1.05 1.99-2 4a80 80 0 0 1-3.06 3.63c-1.6 1.79-2.86 3.22-3.94 5.37h-2v2h-2v2h-2c-1 1.75-1 1.75-2 4s-1 2.25-2 4h-2a96 96 0 0 0-2 4 61 61 0 0 1-2.69 3.25l-1.6 1.83-3.45 3.87a172 172 0 0 0-9.74 12 476 476 0 0 1-15.38 19.4 212 212 0 0 0-6.85 9C661 457 661 457 659.43 458.51c-1.43 1.48-1.43 1.48-3 4.67L655 466h-2v2h-2l-2 6h-2v2h-2l-.75 2.75c-1.32 3.44-2.61 4.77-5.25 7.25a413 413 0 0 0-3 5l-3 3a199 199 0 0 0-3 5 512 512 0 0 1-12.9 18.66c-5.2 7.28-5.2 7.28-6.91 10.97L609 531h-2v4h-2v2h-2l-.25 2.13c-.93 3.56-2.52 5.96-4.75 8.87h-2l-.25 2.13c-.93 3.55-2.63 5.88-4.75 8.87a219 219 0 0 0-5.44 9.38l-1.3 2.33-2.4 4.43A103 103 0 0 1 579 580h-2v4h-2v4h-2v4h-2l-.37 1.73a33 33 0 0 1-2.7 6.52L565 606l-3.94 7.88q-2.91 5.85-5.87 11.68l-1.63 3.19-1.43 2.8A28 28 0 0 0 550 638h-2l-.25 2c-.81 3.25-2.1 5.8-3.64 8.75-2.4 4.85-4.3 9.95-6.1 15.05L537 666h-2v4h-2l.15 2.16c-.18 3.32-1.11 5.37-2.59 8.34-1.73 3.52-2.95 6.61-3.56 10.5h-2l-.38 2.13c-1.1 5.1-2.97 9.8-5.06 14.56a102 102 0 0 0-4.88 14.8c-.6 2.23-1.32 4.3-2.18 6.45-1.69 4.28-2.67 8.7-3.75 13.17A97 97 0 0 1 505 753q-.51 1.93-1 3.88c-1 3.12-1 3.12-4 5.12-2.35-2.55-2.98-3.71-3.19-7.25L497 752h-2l-.55-2.56c-1.25-5.64-2.53-11.06-4.7-16.41a80 80 0 0 1-2.25-7.6A75 75 0 0 0 483 713l-2-5-1.63-3.56C478 701 478 701 478 697h-2l-.52-1.84a137 137 0 0 0-5.61-15.84A40 40 0 0 1 468 672h-2c-1.76-3.43-2.22-6.17-2-10h-2l-.38-1.94L461 658l-2-1a24 24 0 0 1-2-10h-2a43 43 0 0 1-4-13h-2v-4h-2v-4h-2c-.71-1.87-1.42-3.75-2.02-5.66-.98-2.34-.98-2.34-2.8-5.03-3.15-4.79-5.37-9.94-7.74-15.15a92 92 0 0 0-7.5-13.46C424 585 424 585 424 582h-2l-.38-1.94L421 578l-2-1c-1.37-2.9-2-4.76-2-8h-2a107 107 0 0 1-3.44-6.25c-3.3-6.43-3.3-6.43-5.28-8.92C405 552 405 552 405 548l-3-1c-1.6-2.21-1.6-2.21-3.19-4.94l-1.6-2.71C396 537 396 537 396 535h-2v-4h-2v-2h-2l-.75-2c-1.47-3.52-3.49-6.1-5.8-9.1-1.68-2.2-3.03-4.53-4.45-6.9l-3-4c-5.78-7.64-5.78-7.64-6.44-11.69L369 493q-1.99-1.02-4-2c-2.06-2.81-2.06-2.81-4-6l-1.75-2.75C358 480 358 480 358 478h-2v-2h-2v-4h-2v-2h-2c-2-3-2-3-2-6h-2c-2.77-3.12-4.86-6.44-7-10a392 392 0 0 0-4-5c-7.7-9.56-7.7-9.56-10.94-13.94-3.12-4.2-6.44-8.22-9.76-12.26q-3.25-3.96-6.43-7.99-3.62-4.57-7.5-8.93C291 395.28 291 395.28 291 392h-2v-2h-2v-2h-2c-1.73-1.9-1.73-1.9-3.63-4.37l-1.9-2.47C278 379 278 379 278 377h-2v-2h-2v-2h-2v-2h-2v-2h-2c-1.33-1.83-1.33-1.83-2.81-4.25A30 30 0 0 0 257 356v-2h-2v-2h-2l-2-6h-2c-1.45-1.43-1.45-1.43-3.13-3.44q-3.95-4.68-8.06-9.25c-7.69-8.68-12.3-14.55-12.15-26.48.53-4.4 1.45-6.92 4.57-10.11 5.42-3.37 12.31-2.49 18.37-1.14"/><path fill="#3f4632" d="M841.41 578.73h3.75l3.9.02 3.92-.02h3.74l3.43.01C863 579 863 579 866 581c2.16.3 2.16.3 4.63.38l2.7.1 2.8.08 7.97.27c1.9.17 1.9.17 2.9 1.17q3.21.3 6.44.5c6.34.39 6.34.39 8.56 1.5q2.55.33 5.13.56l2.75.26 2.12.18v2l2.15-.04 2.79-.02 2.78-.04c2.28.1 2.28.1 3.28 1.1q2.02.34 4.06.56l3.94.44v2l2.56-.19c3.33.18 5.51.92 8.5 2.33 2.93 1.3 5.97 2.18 9.02 3.11C953 598 953 598 955 600q2.53.9 5.13 1.63l2.75.78 2.12.59v2l6 2c1.02 8.95-.72 14.52-5.37 22.19-1.4 2.42-2 4.15-2.63 6.81l-4 3c-.75 2.19-.75 2.19-1 4h-2v4h-2v2h-2v4h-2v2h-2l-.25 2.25c-.9 3.33-2.27 4.41-4.75 6.75l-3 5a277 277 0 0 1-12.44 15.2l-2.92 3.41c-5.35 6.28-11.17 12.1-17 17.94l-5.3 5.33-4.99 5.02A42 42 0 0 1 888 723a90 90 0 0 0-4 4 36 36 0 0 1-9 7l-1.5 1.5c-1.5 1.5-1.5 1.5-3.74 2.83-3.96 2.4-7.56 5.23-11.24 8.03C856 748 856 748 853 748v2h-2v2h-4v2l-5 2q-1.77 1.06-3.5 2.19c-4.67 3-9.55 5.57-14.45 8.16a105 105 0 0 0-5.77 3.35c-2.64 1.5-4.29 1.56-7.28 1.3v2h-4v2h-4v2l-2.12.59-2.75.79-2.75.77C793 780 793 780 791 782q-2.26.87-4.56 1.56c-4.34 1.34-4.34 1.34-5.44 2.44q-3 .06-6 0v2h-6v2l-3.03.62-3.9.82-3.91.8C755 793 755 793 754 794q-3 .06-6 0v2l-1.93.18-2.5.26-2.5.24C739 797 739 797 738 798q-3.04.36-6.09.62C730 799 730 799 728 801c-2.13.13-2.13.13-4.56 0-2.44-.12-2.44-.12-4.44 0l-1 2c-2.69.38-2.69.38-6 .56-5.9.34-5.9.34-7 1.44a279 279 0 0 1-9.63.6c-5.27.3-5.27.3-6.37 1.4q-2.09.2-4.18.28l-2.56.11-2.7.11-5.24.22-2.36.09C670 808 670 808 668 809q-4.37.13-8.73.1h-2.61l-8.28-.04-5.61-.01L629 809v2h-98v-2h-2c-.2-5.53.25-9.76 2-15h2v-6h2v-4h2l.13-2.75c.86-5.95 4.08-11.02 6.87-16.25l2.1-4.11 2.15-4.14 1.03-2.03q1.3-2.4 2.72-4.72h2v-4h2l.31-2.25c.75-3 1.8-4.33 3.69-6.75q1.42-2.12 2.81-4.25c2.5-3.77 5.14-7.39 7.89-10.98 1.3-1.77 1.3-1.77 2.8-4.4 1.73-2.73 3.78-4.68 6.1-6.9 1.4-1.47 1.4-1.47 2.84-3.9 1.88-3.1 4.2-5.27 6.84-7.73C591 697 591 697 592.21 694.8c2.32-3.63 5.16-6.46 8.22-9.5l1.89-1.9 3.97-3.95 6.02-6.03 3.87-3.86 1.8-1.81A63 63 0 0 1 629 659q2.1-1.8 4.13-3.69a169 169 0 0 1 19.98-15.37c3.13-2.1 6.03-4.4 8.96-6.77C664 632 664 632 668 632v-2h2v-2h4v-2h4v-2c8.9-6.12 22.8-15.64 34-15v-2h4v-2l2.05-.59 2.7-.78 2.67-.78A46 46 0 0 0 730 600q2.33-.83 4.69-1.56c4.2-1.33 4.2-1.33 5.31-2.44q3-.06 6 0v-2h6v-2l6.15-.68C760 591 760 591 761 590c2.67-.14 5.32-.04 8 0v-2l1.93-.18 2.5-.26 2.5-.24C778 587 778 587 779 586c2.58-.32 5.16-.51 7.75-.72C789 585 789 585 790 584c3.62-.33 7.24-.51 10.88-.72C804 583 804 583 805 582q2.82-.19 5.64-.25l3.5-.1 7.32-.17 3.5-.1 3.22-.08c2.82-.3 2.82-.3 4.8-1.3 2.85-1.4 5.27-1.26 8.43-1.27m-693.51 0h3.45l3.59.02 3.57-.02h3.45l3.15.01c3.01.27 5.1 1.12 7.89 2.26 2.66.3 2.66.3 5.48.38l3.09.1 3.18.08 9.1.27C196 582 196 582 197 583q3.5.3 7 .5c6.89.39 6.89.39 8 1.5q2.5.3 5 .5c4.89.39 4.89.39 6 1.5q2.25.3 4.5.5c4.39.39 4.39.39 5.5 1.5l3.5.5c3.5.5 3.5.5 4.5 1.5q2.02.34 4.06.56l3.94.44v2h6v2l2.56-.19c4.07.22 6.76 1.48 10.44 3.19l3 1c3 1 3 1 6.63 2.56A36 36 0 0 0 285 605v2h4v2l2.2.4c8.41 1.82 15.6 6.06 22.8 10.6 3.02 1.87 5.48 3.35 9 4v2h4v2h2v2h4v2l2.81.81c3.1 1.16 4.04 1.86 6.19 4.19l2.19 1.31a98 98 0 0 1 8.9 6.28c1.91 1.41 1.91 1.41 4.6 2.97 2.86 1.78 4.93 4.06 7.31 6.44l2.31 1.31c3.3 2.07 5.68 4.63 8.33 7.46a56 56 0 0 0 6.02 4.9c5.12 3.78 9.5 8.2 13.97 12.7l2.48 2.47c4.24 4.25 8.14 8.52 11.6 13.44a41 41 0 0 0 4.48 4.9c2.55 2.56 3.98 4.76 5.81 7.82q2.25 2.3 4.58 4.52c1.87 1.95 3.1 4.14 4.42 6.48l1.5 1.5c2.7 2.7 4.32 5.42 4.94 9.19L436 733l1.86.86c2.73 1.45 3.47 2.93 4.89 5.64l1.3 2.4c.95 2.1.95 2.1.95 4.1h2v4h2v4h2q1.02 2.5 2 5l1.88 2.81c2.4 3.6 4.28 7.28 6.12 11.19l.92 1.93c1.52 3.33 2.08 5.32 2.08 9.07h2v4h2v6h2c1.75 5.24 2.2 9.47 2 15h-2v2a38349 38349 0 0 1-56.63.08l-23.93.03h-9.24l-2.8.01c-6.29 0-6.29 0-7.4-1.12q-4.19-.22-8.37-.28l-2.55-.06-8.08-.16-10.62-.22-2.5-.04c-5.77-.13-5.77-.13-6.88-1.24a81 81 0 0 0-4.7-.32l-2.85-.12-3.01-.12-3.02-.13L310 807v-2l-3.25.04-4.19.02-2.14.03q-2.7 0-5.42-.09l-1-1c-2.71-.29-5.42-.45-8.14-.62-2.92-.39-5.16-1.25-7.86-2.38h-5l-2-2c-2.13-.38-2.13-.38-4.56-.56-4.34-.34-4.34-.34-5.44-1.44q-2.02-.34-4.06-.56L253 796v-2l-3.56.19c-4.38.01-7.46-1.35-11.44-3.19q-2.98-.61-6-1v-2h-6v-2l-2.37.25c-5.58-.38-11.61-2.23-15.63-6.25q-2.54-.9-5.12-1.62l-2.76-.8L198 777v-2h-4v-2h-6v-2l-2.19-.31c-3.15-.77-5.07-1.95-7.81-3.69q-2.12-1.2-4.25-2.37l-2.33-1.3-4.93-2.7-2.43-1.32-2.21-1.2C160 757 160 757 158 755c-2.12-.62-2.12-.62-4-1v-2l-1.87-.44C150 751 150 751 148 750v-2l-2-.12c-4.96-1.45-8.97-4.83-12.59-8.48-1.41-1.4-1.41-1.4-3.91-2.9a27 27 0 0 1-5.5-4.5l-3-1v-2l-1.75-.87c-2.64-1.32-4.17-3.05-6.25-5.13l-2.15-1.16c-4.03-2.6-7.2-5.9-10.56-9.29l-6.86-6.86-7.06-7.05-4.52-4.53-2.11-2.1a100 100 0 0 1-10.49-12.33C68 678 68 678 65.81 675.8c-2.07-2.07-3.3-4.3-4.81-6.81l-2-2c-3.58-3.58-5.29-7-6-12h-2v-2h-2v-4h-2v-2h-2v-4h-2q-1.53-3-3-6l-2-1-1.94-5.4c-1.8-4.43-4.26-8.5-6.63-12.65C28 615 28 615 28 611h2v-4h2v-2h4v-2a76 76 0 0 1 5-2q2.56-1.2 5.13-2.44a79 79 0 0 1 14.75-4.98C63 593 63 593 64 592q3-.06 6 0v-2l6.15-.68C78 589 78 589 79 588c2.06-.32 4.12-.51 6.19-.72C87 587 87 587 88 586c2.84-.32 5.68-.51 8.53-.72C99 585 99 585 100 584q3.52-.1 7.06-.06l3.91.02 3.03.04v-2l2.14-.06 9.61-.31 3.37-.1 3.24-.12 2.98-.1C138 581 138 581 139.98 580c2.72-1.33 4.9-1.25 7.92-1.26"/><path fill="#869b85" d="m983.81 294.63 3.03-.12 2.93-.03 2.67-.06c3.89.88 5.25 2.36 7.56 5.58.68 3.21.6 6.33.52 9.6l-.01 2.8q-.04 4.4-.14 8.79l-.04 5.95q-.04 5.43-.14 10.86l-.04 2.2c-.15 1.8-.15 1.8-1.15 3.8-.27 3.66-.44 7.3-.6 10.97-.3 5.93-.3 5.93-1.4 7.03q-.3 2.74-.5 5.5c-.39 5.39-.39 5.39-1.5 6.5a104 104 0 0 0-.56 5.06l-.26 2.79L994 384h-2v8h-2l.12 3.56c.02 4.16-.8 7.5-2.12 11.44h-2l.12 2.63c-.12 3.5-.88 6.12-2.12 9.37h-2l.25 2.63c-.26 3.5-1 4.67-3.04 7.4-3.33 5.4-5.13 11.9-7.23 17.87L971 449h-2v4h-2v4h-2l-.56 2.44c-1.66 4.11-3.92 6.96-6.7 10.38a65 65 0 0 0-3.99 5.56A35 35 0 0 1 949 481l-1.28 2.26c-1.93 3.07-4.1 5.37-6.65 7.94l-8.96 8.96-2.91 2.91-2.66 2.65A41 41 0 0 1 919 511l-1.5 1.5c-1.95 1.95-4.14 3.08-6.5 4.5q-1.92 1.46-3.81 2.94C897.9 527 897.9 527 893 527v2h-4v2q-2.73 1.1-5.51 2.07c-3.72 1.39-7.23 3.18-10.78 4.94-3.06 1.12-5.48 1.16-8.71.99l-1 3h-6v2l-3.03.62-3.9.82-3.91.8C843 547 843 547 842 548c-2.06.32-4.12.51-6.19.72-1.8.28-1.8.28-2.8 1.28-2.59.32-5.17.51-7.76.72C823 551 823 551 822 552c-3.1.32-6.2.51-9.31.72C810 553 810 553 809 554c-3.1.32-6.2.51-9.31.72C797 555 797 555 796 556c-2.32.32-4.64.51-6.97.72C787 557 787 557 786 558q-2.25.52-4.5.94l-2.75.53-2.75.53a96 96 0 0 0-13.69 3.63 24 24 0 0 1-10.3 1.37l-.01 2-3.03.62-3.9.82-3.91.8C738 570 738 570 737 571q-3 .06-6 0v2l-1.84.52c-16.43 4.75-16.43 4.75-20.16 8.48q-2.4 1.14-4.88 2.13l-2.61 1.06C699 586 699 586 695 586v2h-4v2h-4v2a207 207 0 0 1-5.83 2.14c-3 1.2-5.5 3.06-8.17 4.86h-3q-.04-4.96-.06-9.94l-.03-2.86v-2.73l-.02-2.52C670 579 670 579 671 578q.34-2.77.56-5.56l.26-3.07.18-2.37h2l-.06-3.94q-.04-2.02.06-4.06l1-1 .44-3.12A59 59 0 0 1 678 544l2-1-.13-2.06c.13-3 .56-4.02 1.94-6.57 2.21-4.1 3.37-8.24 4.48-12.76A44 44 0 0 1 689 514h2l.44-2.75c.42-2.47.91-4.84 1.56-7.25h2l.26-2c.98-3.98 2.74-7.36 4.61-11l1.07-2.12c1.51-2.97 3.06-5.87 4.77-8.74A17 17 0 0 0 708 474h2v-4h2l.44-1.87C713 466 713 466 714 464h2l.19-2.06c.94-3.4 2.45-5.46 4.55-8.25 1.6-2.13 2.9-4.4 4.26-6.69a142 142 0 0 1 9.32-12.75c1.68-2.25 1.68-2.25 3.1-4.63 1.88-3.12 3.98-6 6.14-8.93l1.21-1.67A86 86 0 0 1 748 415h2v-2h2l.44-1.87C753 409 753 409 754 407h2v-2h2v-2c2.37-2.62 2.37-2.62 5-5h2v-2h2v-2h2v-2h2l.87-1.87c1.36-2.57 2.57-2.94 5.13-4.13v-2h2v-2c1.37-1.62 1.37-1.62 3-3h2v-2h2v-2h2v-2h2v-2h2v-2a360 360 0 0 1 4.94-2.74c3.73-2.28 6.83-5.32 10.06-8.26 3.84-3.42 7.5-6.46 12-9l6-4 6-4 2.94-2c9.18-6 9.18-6 13.06-6v-2h4v-2h4v-2q2.8-1.13 5.65-2.15a88 88 0 0 0 15.04-6.98c4.58-2.59 8.04-3.87 13.31-3.87v-2l2.56-.55c10.4-2.3 10.4-2.3 14.25-3.89 3.96-1.6 8.06-2.64 12.2-3.69l2-.51a75 75 0 0 1 10.3-1.85c3.7-.51 3.7-.51 6.7-2.51 2.4-.38 2.4-.38 5.05-.56 4.75-.34 4.75-.34 6.94-1.44q2.46-.2 4.94-.28l2.96-.12 6.2-.2 2.96-.12 2.73-.1c5.02-.42 9.72-1.48 15.02-1.56m-962 .19H25c7.73.05 7.73.05 10.01 1.19q5.16.38 10.32.6c5.58.3 5.58.3 6.68 1.4 2.78.28 5.55.45 8.34.62C63 299 63 299 66 301c2.23.38 2.23.38 4.62.56 4.28.34 4.28.34 5.38 1.44l3.56.37c3.64.42 6.7 1.42 10.1 2.81 2.95 1.03 5.91 1.66 8.96 2.32 4.56 1 8.28 2.24 12.38 4.5 2.87.69 2.87.69 5 1v2l2.12-.19c4.35.29 7.5 2.3 11.11 4.63 3.26 1.84 6.54 3.02 10.08 4.25l1.96.68L146 327v2l1.62.31c3.04.88 5.64 2.13 8.38 3.69v2l2.06.19c3.4.94 5.46 2.45 8.25 4.55 2.13 1.6 4.4 2.9 6.69 4.26l6 4 3.19 2.06A39 39 0 0 1 188 355l2.44 1.44c2.62 1.6 4.4 3.4 6.56 5.56q2.45 1.57 5 3l3 2v2h2v2l6 2v2h2v2h2v2h2c1.63 1.37 1.63 1.37 3 3v2h2v2h2v2h2v2h2v2h2v2h2v2h2v2h2c1.73 1.64 1.73 1.64 3.62 3.81l1.92 2.15C245 406 245 406 245 409h2v2h2v2h2v2h2c1.15 1.61 1.15 1.61 2.37 3.75A38 38 0 0 0 262 427l3 5q1.73 2.27 3.5 4.5a78 78 0 0 1 6.5 9.5q1.46 2.2 2.94 4.37C285 460.92 285 460.92 285 464h2v4h2v4h2c1.37 2.27 2.61 4.52 3.81 6.87l1.08 2.07a1016 1016 0 0 1 4.68 9.1C306 500.76 306 500.76 306 506h2v4h2l.55 1.94c1.51 5.2 3.3 10.08 5.45 15.06a173 173 0 0 1 5 16q.73 2.35 1.5 4.69l.78 2.38C324 552 324 552 325 553l1 7 1 1c.32 2.32.51 4.64.72 6.97C328 570 328 570 329 571c.32 2.58.51 5.16.72 7.75C330 581 330 581 331 582q.12 2.01.1 4.04l-.01 2.45-.03 2.57-.01 2.6L331 600c-5.52-1.65-9.93-4.24-14.8-7.25a61 61 0 0 0-9.13-3.96c-4.18-1.6-8.1-3.77-12.07-5.83a107 107 0 0 0-21-7.96v-2h-6v-2l-2 .19c-3.4-.22-5.86-1.2-9-2.46a35 35 0 0 0-8-1.73v-2l-3.44.06C242 565 242 565 241 564l-3.25-.44c-3.31-.5-5.7-1.28-8.75-2.56a251 251 0 0 0-5-1l-2-1c-2.33-.3-4.66-.5-7-.72-2-.28-2-.28-3-1.28q-2.5-.3-5-.5c-4.89-.39-4.89-.39-6-1.5q-2.74-.3-5.5-.5c-5.39-.39-5.39-.39-6.5-1.5a143 143 0 0 0-6.06-.56l-3.35-.26L177 552v-2h-10v-2l-3.94.06q-2.02.04-4.06-.06l-1-1q-2.02-.34-4.06-.56L150 546v-2l-2.6.14c-3.72-.15-6.23-.99-9.65-2.39l-3.42-1.38L131 539l-5.5-2.13A60 60 0 0 1 116 532c-2.31-.69-2.31-.69-4-1v-2h-4v-2h-4v-2l-2.63-.75C94.84 521.83 89.5 517.21 84 513l-2.22-1.7c-6.7-5.22-12.73-10.95-18.72-16.99l-2.82-2.8-2.7-2.7-2.43-2.44A41 41 0 0 1 50 479l-1.5-1.5c-1.96-1.95-3.12-4.12-4.5-6.5a374 374 0 0 0-5.6-8.28l-1.66-2.4-1.58-2.27C34 456 34 456 34 453h-2v-4h-2q-1.16-2.94-2.22-5.93C27 441 27 441 25.56 438.62c-2-3.35-3.3-6.87-4.7-10.51C20 426 20 426 19 425q-.06-3 0-6h-2v-6h-2v-6h-2l-.62-3.03-.82-3.9-.8-3.9C10 393 10 393 9 392c-.32-2.06-.51-4.12-.72-6.19C8 384 8 384 7 383c-.32-2.32-.51-4.64-.72-6.97C6 374 6 374 5 373c-.32-3.1-.51-6.2-.72-9.31C4 361 4 361 3 360q-.35-5.13-.52-10.27A90 90 0 0 0 2 344l-2-1c-.2-3.04-.28-5.99-.27-9.03v-25.64c0-2.1.13-4.22.27-6.33l2-1 .19-1.94L3 297c6.18-2.45 12.24-2.27 18.81-2.19"/><path fill="#c2603c" d="M490 0h21v2l2.83.08a5138 5138 0 0 1 21.3.6l3.91.11C542 3 542 3 543 4q3.75.32 7.5.5c7.37.37 7.37.37 8.5 1.5q3.03.34 6.06.56l3.35.26L571 7v2l2.15-.04 5.57-.06C581 9 581 9 582 10q2.02.34 4.06.56L590 11v2l3.94-.06q2.02-.04 4.06.06l1 1 3.13.38c4.04.65 7.13 1.99 10.87 3.62l6 1 1 2c3.06.63 3.06.63 6 1v2l2.65-.15c3.64.16 5.74.98 8.98 2.59 3.12 1.53 5.96 2.86 9.37 3.56v2l5 1 5 1v2l2.13.31c6.48 1.55 12.45 5.58 18.3 8.73l3.76 2.02q2.61 1.34 5.28 2.56L689 51v2h4v2l1.88.44C697 56 697 56 699 57v2l2.38.25L704 60l2 4q2.5.55 5 1l1 3 2.31.44c3.38.7 4.36 2.08 6.69 4.56a263 263 0 0 0 5 3c4.92 3.76 9.8 7.74 14.13 12.19a13 13 0 0 0 4.09 3.04c3.52 2.24 6.25 4.95 9.18 7.9l5.61 5.62 5.75 5.74 3.7 3.7 1.72 1.71a97 97 0 0 1 9.55 11.37 75 75 0 0 0 4.77 5.8L788 137c3.41 3.84 6.46 7.5 9 12a134 134 0 0 0 8.83 12.07C807 163 807 163 807 167h2v2h2v4h2v4h2c1.2 1.8 1.2 1.8 2.56 4.44l1.58 3 .88 1.7q1.66 3.13 3.38 6.24l2.48 4.56 1.22 2.22 1.14 2.12 1.03 1.88C830 205 830 205 830 209h2l.48 1.8c1.65 5.85 3.8 11.22 6.38 16.7A74 74 0 0 1 842 236l1 1q.06 3 0 6h2v6h2l.68 6.15C848 257 848 257 849 258l1 7 1 1c.14 2.67.04 5.32 0 8h2c.7 5.2 1.07 9.83 0 15-2.76 2.25-5.2 2.97-8.62 3.96-4.52 1.4-8 3.78-11.9 6.4C825.5 304 825.5 304 822 304l-.37-2.94L821 298l-2-1c-.75-2.48-.75-2.48-1.44-5.62A66 66 0 0 0 813 278c-1.6-3.56-2.22-6.09-2-10h-2q-1.09-2.82-2.1-5.67c-1.2-3.12-2.84-5.92-4.5-8.83-1.62-2.88-3.14-5.8-4.65-8.75l-1.52-2.95A29 29 0 0 1 794 234h-2v-2h-2v-4h-2v-4h-2q-1.78-2.82-3.37-5.75c-2.2-4.02-4.3-7.11-7.63-10.25a131 131 0 0 1-3-5c-4.75-7.35-10.25-14.53-16.64-20.54-2.02-2.17-2.55-4.65-3.36-7.46h-2v-2l-2-1-2-1v-2l-1.64-.78c-3.25-1.68-5.57-4.14-8.11-6.72l-1.53-1.51C731 156.25 731 156.25 731 154h-2v-2h-2v-2a87 87 0 0 0-4-2c-4.76-2.81-8.26-6.2-12.1-10.17A30 30 0 0 0 704 133l-3-3-2.5-1.5a26 26 0 0 1-5.5-4.5 157 157 0 0 0-5-3q-2.16-1.27-4.31-2.56l-2.12-1.26L680 116v-2h-4v-2l-1.87-.44C672 111 672 111 670 110v-2h-4v-2l-2.17-.33c-3.08-.73-5.33-1.86-8.08-3.42l-2.91-1.63q-2.63-1.5-5.24-3.02A69 69 0 0 0 632 91v-2h-4v-2h-6v-2l-2.12-.37A76 76 0 0 1 611 82c-4.3-1.47-8.62-2.77-13-4v-2h-6v-2l-3.94.06q-2.02.04-4.06-.06l-1-1q-2.02-.34-4.06-.56L575 72v-2l-1.93.03-5 .07C566 70 566 70 565 69q-2.77-.34-5.56-.56l-3.07-.26L554 68v-2l-3.03.03-3.9.03-3.91.04C540 66 540 66 539 65q-2.74-.22-5.5-.28l-3.38-.11-3.56-.11-10.05-.31C514 64 514 64 512 63q-2.58-.14-5.16-.13h-15.53C489 63 489 63 487 64q-2.8.2-5.63.28l-3.38.11-7.11.22-3.38.1-3.12.1C462 65 462 65 461 66c-3.62.33-7.25.51-10.87.72C447 67 447 67 446 68q-2.46.3-4.94.5c-4.84.39-4.84.39-7.06 1.5-2.67.13-5.32.04-8 0v2l-3.5.31c-3.1.37-5.68 1.06-8.56 2.25-3.84 1.57-6.82 1.7-10.94 1.44v2l-3.12.88c-17.9 5.14-17.9 5.14-20.88 8.12q-3 .06-6 0v2h-4v2l-1.73.41c-7.75 2.06-14.33 5.64-21.27 9.59l-5.19 2.94-2.1 1.21C337 106 337 106 335 106v2h-4v2h-4v2h-2v2l-2 .75c-3.52 1.47-6.1 3.49-9.1 5.8-2.2 1.68-4.53 3.03-6.9 4.45q-2.98 2.15-5.88 4.4-2.1 1.58-4.24 3.15a71 71 0 0 0-8.57 7.14c-2.3 2.3-4.53 3.64-7.31 5.31l-2.69 2.69L276 150h-2v2h-2v2h-2l-.78 1.64c-1.68 3.25-4.14 5.57-6.72 8.11l-1.51 1.53C257.25 169 257.25 169 255 169l-1 2-1 2h-2v2h-2q-1.03 1.99-2 4l-3 3-1.31 2.31c-1.8 2.88-3.84 4.88-6.27 7.21-1.87 1.95-3.1 4.14-4.42 6.48l-3 3a199 199 0 0 0-3 5 150 150 0 0 1-8.73 12.07A14.4 14.4 0 0 0 215 224h-2l-.44 1.88C212 228 212 228 211 230h-2v4h-2l-.33 2.21c-.72 2.98-1.76 4.86-3.42 7.41-3.27 5.27-5.78 10.7-8.25 16.38l-1.16 2.52c-1.76 3.8-3.3 7.28-3.84 11.48h-2l-.31 1.94a91 91 0 0 1-2.87 9.66q-.81 2.37-1.58 4.77c-1.4 4.4-2.8 8.67-5.24 12.63-3.59 0-4.98-.96-8.06-2.75a88 88 0 0 0-14.14-6.4q-.9-.41-1.8-.85v-2h-4v-2h-2v-2h-2l1.46-10.06C148 274 148 274 149 273q.3-2 .5-4c.39-3.89.39-3.89 1.5-5l.5-3.5c.5-3.5.5-3.5 1.5-4.5q.55-3.5 1-7h2v-6h2l-.12-2.75c.12-3.22.5-4.56 2.12-7.25 1.9-3.5 3.18-7.13 4.5-10.87l1.28-3.62q1.65-4.74 3.22-9.51h2l.27-2.02c.95-3.9 2.65-7.18 4.48-10.73l1.09-2.15c2.3-4.5 4.68-8.95 7.25-13.3.97-1.91 1.47-3.7 1.91-5.8h2v-2h2v-4h2l.36-1.76a21 21 0 0 1 2.95-6.12l1.36-2.1L198 157l2.06-3.25A50 50 0 0 1 206 147l3-5 3-3 1.31-2.31c1.78-2.84 3.74-4.82 6.19-7.06 1.5-1.63 1.5-1.63 2.62-3.74 2.65-4.08 6-7.29 9.44-10.71l2.23-2.24 4.69-4.68 7.14-7.16 4.56-4.54 2.15-2.17c3.36-3.33 6.44-6.16 10.67-8.39a91 91 0 0 0 3.81-3.25l2.07-1.84L271 79c10.69-9.62 10.69-9.62 15.69-10.44L289 68q1.02-2 2-4h4l.94-1.94L297 60c2.63-.75 2.63-.75 5-1v-2h2v-2h4v-2h4v-2a119 119 0 0 1 7.13-3.94l2.01-1.05q4.54-2.36 9.13-4.63a84 84 0 0 0 6.36-3.57C340 36 340 36 344 36v-2l2.68-.92c6.82-2.38 13.36-4.88 19.82-8.16 2.96-1.09 5.38-1.08 8.5-.92v-2l2.94-.37L381 21l1-2c2.69-.82 2.69-.82 6-1.56 5.9-1.35 5.9-1.35 7-2.44l7-1 1-1 7-1 1-1c2.06-.32 4.12-.51 6.19-.72C419 10 419 10 420 9a91 91 0 0 1 5.06-.06l2.79.03L430 9V7l2.59-.18 6.69-.5C442 6 442 6 443 5q3.46-.31 6.94-.5c6.84-.39 6.84-.39 9.06-1.5a183 183 0 0 1 9.05-.38l6.57-.18 4.46-.13L490 2z"/><path fill="#d8c7af" d="m500.38 239.81 3.48-.03 3.35-.01 3.07-.01c2.79.25 4.32.88 6.72 2.24q3.11.87 6.25 1.62l3.27.8 2.48.58v2h4v2l2 .12c4.42 1.3 7.46 4.01 11 6.88l3.06 2.37c8 7.14 19.4 19.4 20.13 30.5L569 291h2l.44 3.44C572 298 572 298 573 299q.14 3.2.13 6.4v19.84C573 328 573 328 572 329l-.35 3.12c-.7 4.12-2.08 7.36-4.02 11l-.93 1.8a143 143 0 0 1-9.26 15.4l-1.82 2.67L554 365h-2v2h-2v2q-2.45 1.44-4.95 2.8a47 47 0 0 0-5.8 4.14c-9.76 7.48-20.86 10.3-32.94 10.75l-2.95.11c-9.71.33-18.53.61-27.36-3.8l-2.87-.88c-7.96-2.86-15.64-7.74-22.13-13.12v-2h-2v-2h-2c-1.59-1.98-1.59-1.98-3.37-4.63-.32-.45-.32-.45-1.9-2.78L440 355l-2.19-3.13c-6.47-10.26-6.47-10.26-5.81-16.87h-2c-2.38-7.47-2.26-14.65-2.19-22.44v-3.91c.05-9.51.05-9.51 1.19-10.65q.55-3.5 1-7h2l-.25-2c.7-8.46 7.27-16.05 12.69-22.2a86 86 0 0 0 3.4-4.22 52 52 0 0 1 7.72-7.27l2.88-2.32c5.13-3.99 5.13-3.99 9.56-3.99v-2h4v-2l3-.84 3.88-1.1 1.97-.55a65 65 0 0 1 19.52-2.7"/><path fill="#9cb09a" d="m983.81 294.63 3.03-.12 2.93-.03 2.67-.06c3.89.88 5.25 2.36 7.56 5.58.67 3.24.58 6.38.49 9.68l-.02 2.8q-.06 4.42-.16 8.83l-.07 6q-.08 7.35-.24 14.69c-2-2-2-2-2.23-5.9l.03-5.05.01-2.68.06-8.5.03-5.75q.03-7.05.1-14.12c-12.51-2.36-12.51-2.36-19.06-1.69l-3.23.3C973 299 973 299 970 300q-2.52.2-5.04.28l-2.95.12-6.16.2-2.95.12-2.7.1c-2.2.18-2.2.18-4.2 1.18-2.6.31-5.18.51-7.79.72C936 303 936 303 935 304q-2.28.1-4.56.06l-2.5-.02L926 304v2l-6.15.68C918 307 918 307 917 308q-3.5.06-7 0v-2l7.5-1.94 2.11-.55a74 74 0 0 1 10.73-2.01C934 301 934 301 937 299c2.41-.38 2.41-.38 5.06-.56 4.75-.34 4.75-.34 6.94-1.44q2.46-.2 4.94-.28l2.96-.12 6.2-.2 2.96-.12 2.73-.1c5.02-.42 9.72-1.48 15.02-1.56M297 487h2a36 36 0 0 1 2.5 4.69l1.28 2.63C306 501.4 306 501.4 306 506h2v4h2l.55 1.94c1.51 5.2 3.3 10.08 5.45 15.06a173 173 0 0 1 5 16 258 258 0 0 0 2.28 7.07C324 552 324 552 325 553l1 7 1 1c.32 2.32.51 4.64.72 6.97C328 570 328 570 329 571c.32 2.58.51 5.16.72 7.75C330 581 330 581 331 582q.12 2.02.1 4.03l-.01 2.46-.03 2.57-.01 2.59L331 600c-4.03-1.29-7.48-2.62-11-5v-1c3.63-.2 5.87.14 9 2l-1-2q-.26-2.69-.44-5.37c-.48-6.3-1.42-12.43-2.56-18.63l-.47-2.7c-.86-4.7-2.04-9-3.8-13.43-1.96-5.03-3-9.47-2.73-14.87h-2c-1.3-4.12-2.26-7.67-2-12h-2l-1.2-3.54-2.4-6.98c-1.16-3.32-2.26-6.26-4.1-9.28-1.3-2.2-1.3-2.2-1.3-6.2h-2v-7h-2c-2-3-2-3-2-7m408-5 1 4h-2v4h-2v4h-2v5h-2l-.36 2.1c-1.54 6.93-4.42 13.78-7.76 20.02-2.06 3.92-3.08 7.96-4.16 12.23a55 55 0 0 1-2.22 6.52c-1.86 4.68-2.8 9.56-3.85 14.47C679 557 679 557 678 558a270 270 0 0 0-2.48 11.63A266 266 0 0 0 672 596l3 1-2 2h-3q-.04-4.96-.06-9.94l-.03-2.86v-2.73l-.02-2.52C670 579 670 579 671 578q.34-2.77.56-5.56l.26-3.07.18-2.37h2l-.06-3.94q-.04-2.02.06-4.06l1-1 .44-3.12A59 59 0 0 1 678 544l2-1-.12-2.06c.12-3 .55-4.02 1.93-6.57 2.21-4.1 3.37-8.24 4.48-12.76A44 44 0 0 1 689 514h2l.44-2.75c.42-2.46.91-4.84 1.56-7.25h2l.25-1.98c1.01-4.08 2.84-7.55 4.75-11.27l1.12-2.22c2.73-5.37 2.73-5.37 3.88-6.53"/></svg>